<svg xmlns="http://www.w3.org/2000/svg" xmlns:xlink="http://www.w3.org/1999/xlink" xmlns:lucid="lucid" width="1760" height="1360"><g transform="translate(0 0)" lucid:page-tab-id="0_0"><path d="M800 387.5c0-4.14 3.36-7.5 7.5-7.5h265c4.14 0 7.5 3.36 7.5 7.5v121c0 4.14-3.36 7.5-7.5 7.5h-265c-4.14 0-7.5-3.36-7.5-7.5z" fill="#fff"/><path d="M800 380h280v40H800z" fill="#ccc"/><path d="M800 387.5c0-4.14 3.36-7.5 7.5-7.5h265c4.14 0 7.5 3.36 7.5 7.5v121c0 4.14-3.36 7.5-7.5 7.5h-265c-4.14 0-7.5-3.36-7.5-7.5zM800 420h280M940 420v96" stroke="#666" fill="none"/><use xlink:href="#a" transform="matrix(1,0,0,1,810,380) translate(14 26.453333333333333)"/><use xlink:href="#b" transform="matrix(1,0,0,1,805,422.5) translate(0 17.1)"/><use xlink:href="#c" transform="matrix(1,0,0,1,945,422.5) translate(0 17.1)"/><use xlink:href="#d" transform="matrix(1,0,0,1,805,454.5) translate(0 17.1)"/><use xlink:href="#e" transform="matrix(1,0,0,1,945,454.5) translate(0 17.1)"/><use xlink:href="#f" transform="matrix(1,0,0,1,805,486.5) translate(0 17.1)"/><use xlink:href="#g" transform="matrix(1,0,0,1,945,486.5) translate(0 17.1)"/><path d="M520 608c0-4.42 3.58-8 8-8h264c4.42 0 8 3.58 8 8v88c0 4.42-3.58 8-8 8H528c-4.42 0-8-3.58-8-8z" fill="#fff"/><path d="M520 600h280v40H520z" fill="#ccc"/><path d="M520 608c0-4.42 3.58-8 8-8h264c4.42 0 8 3.58 8 8v88c0 4.42-3.58 8-8 8H528c-4.42 0-8-3.58-8-8zM520 640h280M660 640v64" stroke="#666" fill="none"/><use xlink:href="#h" transform="matrix(1,0,0,1,530,600) translate(14 26.453333333333333)"/><use xlink:href="#i" transform="matrix(1,0,0,1,525,642.5) translate(0 17.1)"/><use xlink:href="#c" transform="matrix(1,0,0,1,665,642.5) translate(0 17.1)"/><use xlink:href="#j" transform="matrix(1,0,0,1,525,674.5) translate(0 17.1)"/><use xlink:href="#c" transform="matrix(1,0,0,1,665,674.5) translate(0 17.1)"/><path d="M280 83.33c0-6.63 5.37-12 12-12h1172.6c6.6 0 12 5.37 12 12v39.08c0 6.63-5.4 12-12 12H292c-6.63 0-12-5.37-12-12z" stroke="#000" stroke-opacity="0" stroke-width="2" fill="#fff" fill-opacity="0"/><use xlink:href="#k" transform="matrix(1,0,0,1,285,76.32837145029737) translate(510.46296296296293 31.458333333333336)"/><use xlink:href="#l" transform="matrix(1,0,0,1,285,76.32837145029737) translate(556.2407407407408 31.458333333333336)"/><path d="M597.95 147.2c0-6.63 5.37-12 12-12h541.78c6.63 0 12 5.37 12 12v9.92c0 6.63-5.37 12-12 12H609.95c-6.63 0-12-5.37-12-12z" stroke="#000" stroke-opacity="0" stroke-width="2" fill="#fff" fill-opacity="0"/><use xlink:href="#m" transform="matrix(1,0,0,1,602.9497623709126,140.19773430902208) translate(168.93827160493828 15.444444444444446)"/><use xlink:href="#n" transform="matrix(1,0,0,1,602.9497623709126,140.19773430902208) translate(201.73456790123458 15.444444444444446)"/><use xlink:href="#o" transform="matrix(1,0,0,1,602.9497623709126,140.19773430902208) translate(246.62962962962965 15.444444444444446)"/><use xlink:href="#p" transform="matrix(1,0,0,1,602.9497623709126,140.19773430902208) translate(259.2901234567901 15.444444444444446)"/><use xlink:href="#q" transform="matrix(1,0,0,1,602.9497623709126,140.19773430902208) translate(335.20987654320993 15.444444444444446)"/><use xlink:href="#r" transform="matrix(1,0,0,1,602.9497623709126,140.19773430902208) translate(352.4938271604939 15.444444444444446)"/><path d="M556.9 126.92h648M556.93 126.92h-1.02M1204.88 126.92h1.02" stroke="#b2b2b2" stroke-width="2" fill="none"/><path d="M940 359.5V347c0-4.14 3.36-7.5 7.5-7.5h245c4.14 0 7.5 3.36 7.5 7.5v236.1" stroke="#999" fill="none"/><path d="M950 359.5h-20M940 379.5v-20M1190 602.28l10-20 10 20M1200 602.28v-20" stroke="#999" fill="#fff"/><path d="M1200 582.5V347c0-4.14-3.36-7.5-7.5-7.5h-245c-4.14 0-7.5 3.36-7.5 7.5v13.1" stroke="#999" fill="none"/><path d="M1210 582.5h-20M1200 602.5v-20M930 379.28l10-20 10 20M940 379.28v-20" stroke="#999" fill="#fff"/><path d="M940 359.5V347c0-4.14-3.36-7.5-7.5-7.5h-265c-4.14 0-7.5 3.36-7.5 7.5v233.1" stroke="#999" fill="none"/><path d="M950 359.5h-20M940 379.5v-20M650 599.28l10-20 10 20M660 599.28v-20" stroke="#999" fill="#fff"/><path d="M660 579.5V347c0-4.14 3.36-7.5 7.5-7.5h265c4.14 0 7.5 3.36 7.5 7.5v13.1" stroke="#999" fill="none"/><path d="M670 579.5h-20M660 599.5v-20M930 379.28l10-20 10 20M940 379.28v-20" stroke="#999" fill="#fff"/><path d="M1060 908c0-4.42 3.58-8 8-8h264c4.42 0 8 3.58 8 8v120c0 4.42-3.58 8-8 8h-264c-4.42 0-8-3.58-8-8z" fill="#fff"/><path d="M1060 900h280v40h-280z" fill="#ccc"/><path d="M1060 908c0-4.42 3.58-8 8-8h264c4.42 0 8 3.58 8 8v120c0 4.42-3.58 8-8 8h-264c-4.42 0-8-3.58-8-8zM1060 940h280M1200 940v96" stroke="#666" fill="none"/><use xlink:href="#s" transform="matrix(1,0,0,1,1070,900) translate(14 26.453333333333333)"/><use xlink:href="#b" transform="matrix(1,0,0,1,1065,942.5) translate(0 17.1)"/><use xlink:href="#c" transform="matrix(1,0,0,1,1205,942.5) translate(0 17.1)"/><use xlink:href="#t" transform="matrix(1,0,0,1,1065,974.5) translate(0 17.1)"/><use xlink:href="#e" transform="matrix(1,0,0,1,1205,974.5) translate(0 17.1)"/><use xlink:href="#f" transform="matrix(1,0,0,1,1065,1006.5) translate(0 17.1)"/><use xlink:href="#g" transform="matrix(1,0,0,1,1205,1006.5) translate(0 17.1)"/><path d="M1200 759.5v120.6" stroke="#999" fill="none"/><path d="M1190 759.5h20M1200 739.5v20M1190 899.28l10-20 10 20M1200 899.28v-20" stroke="#999" fill="#fff"/><path d="M1200 879.5V758.9" stroke="#999" fill="none"/><path d="M1210 879.5h-20M1200 899.5v-20M1210 739.72l-10 20-10-20M1200 739.72v20" stroke="#999" fill="#fff"/><path d="M1060 611c0-4.42 3.58-8 8-8h264c4.42 0 8 3.58 8 8v120c0 4.42-3.58 8-8 8h-264c-4.42 0-8-3.58-8-8z" fill="#fff"/><path d="M1060 603h280v40h-280z" fill="#ccc"/><path d="M1060 611c0-4.42 3.58-8 8-8h264c4.42 0 8 3.58 8 8v120c0 4.42-3.58 8-8 8h-264c-4.42 0-8-3.58-8-8zM1060 643h280M1200 643v96" stroke="#666" fill="none"/><use xlink:href="#u" transform="matrix(1,0,0,1,1070,603) translate(14 26.453333333333333)"/><use xlink:href="#i" transform="matrix(1,0,0,1,1065,645.5) translate(0 17.1)"/><use xlink:href="#c" transform="matrix(1,0,0,1,1205,645.5) translate(0 17.1)"/><use xlink:href="#v" transform="matrix(1,0,0,1,1065,677.5) translate(0 17.1)"/><use xlink:href="#c" transform="matrix(1,0,0,1,1205,677.5) translate(0 17.1)"/><use xlink:href="#w" transform="matrix(1,0,0,1,1065,709.5) translate(0 17.1)"/><use xlink:href="#e" transform="matrix(1,0,0,1,1205,709.5) translate(0 17.1)"/><path d="M520 908c0-4.42 3.58-8 8-8h264c4.42 0 8 3.58 8 8v120c0 4.42-3.58 8-8 8H528c-4.42 0-8-3.58-8-8z" fill="#fff"/><path d="M520 900h280v40H520z" fill="#ccc"/><path d="M520 908c0-4.42 3.58-8 8-8h264c4.42 0 8 3.58 8 8v120c0 4.42-3.58 8-8 8H528c-4.42 0-8-3.58-8-8zM520 940h280M660 940v96" stroke="#666" fill="none"/><use xlink:href="#x" transform="matrix(1,0,0,1,530,900) translate(14 26.453333333333333)"/><use xlink:href="#y" transform="matrix(1,0,0,1,525,942.5) translate(0 17.1)"/><use xlink:href="#z" transform="matrix(1,0,0,1,665,942.5) translate(0 17.1)"/><use xlink:href="#A" transform="matrix(1,0,0,1,525,974.5) translate(0 17.1)"/><use xlink:href="#B" transform="matrix(1,0,0,1,665,974.5) translate(0 17.1)"/><use xlink:href="#C" transform="matrix(1,0,0,1,525,1006.5) translate(0 17.1)"/><use xlink:href="#D" transform="matrix(1,0,0,1,665,1006.5) translate(0 17.1)"/><path d="M660 724.5v155.6" stroke="#999" fill="none"/><path d="M650 724.5h20M660 704.5v20M650 899.28l10-20 10 20M660 899.28v-20" stroke="#999" fill="#fff"/><path d="M660 879.5V723.9" stroke="#999" fill="none"/><path d="M670 879.5h-20M660 899.5v-20M670 704.72l-10 20-10-20M660 704.72v20" stroke="#999" fill="#fff"/><path d="M120 908c0-4.42 3.58-8 8-8h264c4.42 0 8 3.58 8 8v88c0 4.42-3.58 8-8 8H128c-4.42 0-8-3.58-8-8z" fill="#fff"/><path d="M120 900h280v40H120z" fill="#ccc"/><path d="M120 908c0-4.42 3.58-8 8-8h264c4.42 0 8 3.58 8 8v88c0 4.42-3.58 8-8 8H128c-4.42 0-8-3.58-8-8zM120 940h280M260 940v64" stroke="#666" fill="none"/><use xlink:href="#E" transform="matrix(1,0,0,1,130,900) translate(14 26.453333333333333)"/><use xlink:href="#F" transform="matrix(1,0,0,1,125,942.5) translate(0 17.1)"/><use xlink:href="#e" transform="matrix(1,0,0,1,265,942.5) translate(0 17.1)"/><use xlink:href="#G" transform="matrix(1,0,0,1,125,974.5) translate(0 17.1)"/><use xlink:href="#c" transform="matrix(1,0,0,1,265,974.5) translate(0 17.1)"/><path d="M420.5 956h79.6" stroke="#999" fill="none"/><path d="M420.5 966v-20M400.5 956h20M519.28 966l-20-10 20-10M519.28 956h-20" stroke="#999" fill="#fff"/><defs><path fill="#666" d="M281-58c46 1 86-17 111-36l26 61c-37 28-94 45-157 45C104 12 53-93 49-250c-5-188 108-294 299-254 22 5 42 12 60 21l-23 69c-29-16-66-28-111-28-95 0-142 64-142 192 0 110 39 189 149 192" id="H"/><path fill="#666" d="M268 12C112 12 51-93 49-250c-1-158 69-262 219-262 156 0 217 105 219 262 1 158-69 262-219 262zm136-262c0-105-32-190-136-192-91-2-136 63-136 192 0 105 33 189 136 192 91 2 136-63 136-192" id="I"/><path fill="#666" d="M568-442c-74 2-103 45-118 108V0h-80v-283c0-87-6-159-94-159-65 0-104 47-119 98V0H77v-500h56l15 61h4c37-41 77-74 155-73 72 1 105 26 126 83 28-48 82-81 155-83 130-3 155 82 155 212V0h-80v-301c1-83-12-143-95-141" id="J"/><path fill="#666" d="M94-500h80V0H94v-500zm38-99c-31 0-55-23-55-53s24-56 55-56 58 26 58 56-28 53-58 53" id="K"/><path fill="#666" d="M63-93c59 36 240 71 234-43-5-91-121-82-179-124-34-24-62-54-62-113 0-97 59-138 155-139 66-1 112 13 154 32l-19 66c-52-26-221-63-210 39 9 83 124 74 178 118 33 27 64 57 63 118-3 103-68 149-174 151C134 13 81-3 39-25" id="L"/><g id="a"><use transform="matrix(0.015555555555555557,0,0,0.015555555555555557,0,0)" xlink:href="#H"/><use transform="matrix(0.015555555555555557,0,0,0.015555555555555557,6.6577777777777785,0)" xlink:href="#I"/><use transform="matrix(0.015555555555555557,0,0,0.015555555555555557,14.995555555555558,0)" xlink:href="#J"/><use transform="matrix(0.015555555555555557,0,0,0.015555555555555557,27.626666666666672,0)" xlink:href="#K"/><use transform="matrix(0.015555555555555557,0,0,0.015555555555555557,31.795555555555563,0)" xlink:href="#H"/><use transform="matrix(0.015555555555555557,0,0,0.015555555555555557,38.81111111111112,0)" xlink:href="#L"/></g><path d="M24-231v-30h32v30H24zM24 0v-190h32V0H24" id="M"/><path d="M85-194c31 0 48 13 60 33l-1-100h32l1 261h-30c-2-10 0-23-3-31C134-8 116 4 85 4 32 4 16-35 15-94c0-66 23-100 70-100zm9 24c-40 0-46 34-46 75 0 40 6 74 45 74 42 0 51-32 51-76 0-42-9-74-50-73" id="N"/><g id="b"><use transform="matrix(0.05,0,0,0.05,0,0)" xlink:href="#M"/><use transform="matrix(0.05,0,0,0.05,3.95,0)" xlink:href="#N"/></g><path d="M117-194c89-4 53 116 60 194h-32v-121c0-31-8-49-39-48C34-167 62-67 57 0H25l-1-190h30c1 10-1 24 2 32 11-22 29-35 61-36" id="O"/><path d="M59-47c-2 24 18 29 38 22v24C64 9 27 4 27-40v-127H5v-23h24l9-43h21v43h35v23H59v120" id="P"/><g id="c"><use transform="matrix(0.05,0,0,0.05,0,0)" xlink:href="#M"/><use transform="matrix(0.05,0,0,0.05,3.95,0)" xlink:href="#O"/><use transform="matrix(0.05,0,0,0.05,13.949999999999998,0)" xlink:href="#P"/></g><path d="M24 0v-261h32V0H24" id="Q"/><path d="M100-194c63 0 86 42 84 106H49c0 40 14 67 53 68 26 1 43-12 49-29l28 8c-11 28-37 45-77 45C44 4 14-33 15-96c1-61 26-98 85-98zm52 81c6-60-76-77-97-28-3 7-6 17-6 28h103" id="R"/><g id="d"><use transform="matrix(0.05,0,0,0.05,0,0)" xlink:href="#P"/><use transform="matrix(0.05,0,0,0.05,5,0)" xlink:href="#M"/><use transform="matrix(0.05,0,0,0.05,8.95,0)" xlink:href="#P"/><use transform="matrix(0.05,0,0,0.05,13.949999999999998,0)" xlink:href="#Q"/><use transform="matrix(0.05,0,0,0.05,17.9,0)" xlink:href="#R"/></g><path d="M141 0L90-78 38 0H4l68-98-65-92h35l48 74 47-74h35l-64 92 68 98h-35" id="S"/><g id="e"><use transform="matrix(0.05,0,0,0.05,0,0)" xlink:href="#P"/><use transform="matrix(0.05,0,0,0.05,5,0)" xlink:href="#R"/><use transform="matrix(0.05,0,0,0.05,15,0)" xlink:href="#S"/><use transform="matrix(0.05,0,0,0.05,24,0)" xlink:href="#P"/></g><path d="M210-169c-67 3-38 105-44 169h-31v-121c0-29-5-50-35-48C34-165 62-65 56 0H25l-1-190h30c1 10-1 24 2 32 10-44 99-50 107 0 11-21 27-35 58-36 85-2 47 119 55 194h-31v-121c0-29-5-49-35-48" id="T"/><path d="M100-194c62-1 85 37 85 99 1 63-27 99-86 99S16-35 15-95c0-66 28-99 85-99zM99-20c44 1 53-31 53-75 0-43-8-75-51-75s-53 32-53 75 10 74 51 75" id="U"/><path d="M101-234c-31-9-42 10-38 44h38v23H63V0H32v-167H5v-23h27c-7-52 17-82 69-68v24" id="V"/><g id="f"><use transform="matrix(0.05,0,0,0.05,0,0)" xlink:href="#T"/><use transform="matrix(0.05,0,0,0.05,14.950000000000001,0)" xlink:href="#U"/><use transform="matrix(0.05,0,0,0.05,24.950000000000003,0)" xlink:href="#N"/><use transform="matrix(0.05,0,0,0.05,34.95,0)" xlink:href="#M"/><use transform="matrix(0.05,0,0,0.05,38.900000000000006,0)" xlink:href="#V"/><use transform="matrix(0.05,0,0,0.05,43.900000000000006,0)" xlink:href="#M"/><use transform="matrix(0.05,0,0,0.05,47.85000000000001,0)" xlink:href="#R"/><use transform="matrix(0.05,0,0,0.05,57.85,0)" xlink:href="#N"/></g><path d="M135-143c-3-34-86-38-87 0 15 53 115 12 119 90S17 21 10-45l28-5c4 36 97 45 98 0-10-56-113-15-118-90-4-57 82-63 122-42 12 7 21 19 24 35" id="W"/><path d="M141-36C126-15 110 5 73 4 37 3 15-17 15-53c-1-64 63-63 125-63 3-35-9-54-41-54-24 1-41 7-42 31l-33-3c5-37 33-52 76-52 45 0 72 20 72 64v82c-1 20 7 32 28 27v20c-31 9-61-2-59-35zM48-53c0 20 12 33 32 33 41-3 63-29 60-74-43 2-92-5-92 41" id="X"/><path d="M115-194c55 1 70 41 70 98S169 2 115 4C84 4 66-9 55-30l1 105H24l-1-265h31l2 30c10-21 28-34 59-34zm-8 174c40 0 45-34 45-75s-6-73-45-74c-42 0-51 32-51 76 0 43 10 73 51 73" id="Y"/><g id="g"><use transform="matrix(0.05,0,0,0.05,0,0)" xlink:href="#P"/><use transform="matrix(0.05,0,0,0.05,5,0)" xlink:href="#M"/><use transform="matrix(0.05,0,0,0.05,8.95,0)" xlink:href="#T"/><use transform="matrix(0.05,0,0,0.05,23.9,0)" xlink:href="#R"/><use transform="matrix(0.05,0,0,0.05,33.9,0)" xlink:href="#W"/><use transform="matrix(0.05,0,0,0.05,42.9,0)" xlink:href="#P"/><use transform="matrix(0.05,0,0,0.05,47.9,0)" xlink:href="#X"/><use transform="matrix(0.05,0,0,0.05,57.900000000000006,0)" xlink:href="#T"/><use transform="matrix(0.05,0,0,0.05,72.85,0)" xlink:href="#Y"/></g><path fill="#666" d="M314-512c131 0 164 78 164 210V0h-80v-285c1-91-15-157-107-157-66 0-134 50-134 109V0H77v-700h80v256h4c35-40 79-68 153-68" id="Z"/><path fill="#666" d="M422-354c0 120-19 253 8 356h-59l-21-70h-5C315-22 265 8 189 8 98 8 39-43 39-134c0-147 152-157 302-151 10-93 1-159-99-153-57 4-110 14-148 35l-25-60c48-30 118-45 194-45 108-1 159 51 159 154zM122-142c-2 47 40 81 89 80 67-1 109-32 130-79v-83c-95-3-214-10-219 82" id="aa"/><path fill="#666" d="M152-439c26-60 97-88 178-61l-17 77c-74-29-156 5-156 73V0H77v-500h56l15 61h4" id="ab"/><path fill="#666" d="M200 12C109 10 89-39 89-138v-292H11v-70h78v-99l80-23v122h136v70H169v277c1 59 6 93 57 95 38 1 55-9 84-20l18 61c-35 17-77 30-128 29" id="ac"/><path fill="#666" d="M293-58c43 0 98-19 119-40l30 58C404-9 338 12 270 12 112 10 51-92 49-250c-1-159 70-258 220-262 155-4 211 110 184 270H132c0 116 45 184 161 184zm88-247c1-92-30-137-111-137-89 0-129 46-137 137h248" id="ad"/><path fill="#666" d="M0 135h408v70H0v-70" id="ae"/><g id="h"><use transform="matrix(0.015555555555555557,0,0,0.015555555555555557,0,0)" xlink:href="#H"/><use transform="matrix(0.015555555555555557,0,0,0.015555555555555557,7.015555555555556,0)" xlink:href="#Z"/><use transform="matrix(0.015555555555555557,0,0,0.015555555555555557,15.524444444444446,0)" xlink:href="#aa"/><use transform="matrix(0.015555555555555557,0,0,0.015555555555555557,23.240000000000002,0)" xlink:href="#ab"/><use transform="matrix(0.015555555555555557,0,0,0.015555555555555557,28.528888888888893,0)" xlink:href="#aa"/><use transform="matrix(0.015555555555555557,0,0,0.015555555555555557,36.24444444444445,0)" xlink:href="#H"/><use transform="matrix(0.015555555555555557,0,0,0.015555555555555557,43.260000000000005,0)" xlink:href="#ac"/><use transform="matrix(0.015555555555555557,0,0,0.015555555555555557,48.36222222222223,0)" xlink:href="#ad"/><use transform="matrix(0.015555555555555557,0,0,0.015555555555555557,56.26444444444445,0)" xlink:href="#ab"/><use transform="matrix(0.015555555555555557,0,0,0.015555555555555557,61.55333333333334,0)" xlink:href="#ae"/><use transform="matrix(0.015555555555555557,0,0,0.015555555555555557,67.9,0)" xlink:href="#H"/><use transform="matrix(0.015555555555555557,0,0,0.015555555555555557,74.55777777777777,0)" xlink:href="#I"/><use transform="matrix(0.015555555555555557,0,0,0.015555555555555557,82.89555555555555,0)" xlink:href="#J"/><use transform="matrix(0.015555555555555557,0,0,0.015555555555555557,95.52666666666666,0)" xlink:href="#K"/><use transform="matrix(0.015555555555555557,0,0,0.015555555555555557,99.69555555555554,0)" xlink:href="#H"/></g><path d="M96-169c-40 0-48 33-48 73s9 75 48 75c24 0 41-14 43-38l32 2c-6 37-31 61-74 61-59 0-76-41-82-99-10-93 101-131 147-64 4 7 5 14 7 22l-32 3c-4-21-16-35-41-35" id="af"/><path d="M-5 72V49h209v23H-5" id="ag"/><g id="i"><use transform="matrix(0.05,0,0,0.05,0,0)" xlink:href="#af"/><use transform="matrix(0.05,0,0,0.05,9,0)" xlink:href="#U"/><use transform="matrix(0.05,0,0,0.05,19,0)" xlink:href="#T"/><use transform="matrix(0.05,0,0,0.05,33.95,0)" xlink:href="#M"/><use transform="matrix(0.05,0,0,0.05,37.900000000000006,0)" xlink:href="#af"/><use transform="matrix(0.05,0,0,0.05,46.900000000000006,0)" xlink:href="#ag"/><use transform="matrix(0.05,0,0,0.05,56.900000000000006,0)" xlink:href="#M"/><use transform="matrix(0.05,0,0,0.05,60.85,0)" xlink:href="#N"/></g><path d="M106-169C34-169 62-67 57 0H25v-261h32l-1 103c12-21 28-36 61-36 89 0 53 116 60 194h-32v-121c2-32-8-49-39-48" id="ah"/><path d="M114-163C36-179 61-72 57 0H25l-1-190h30c1 12-1 29 2 39 6-27 23-49 58-41v29" id="ai"/><g id="j"><use transform="matrix(0.05,0,0,0.05,0,0)" xlink:href="#af"/><use transform="matrix(0.05,0,0,0.05,9,0)" xlink:href="#ah"/><use transform="matrix(0.05,0,0,0.05,19,0)" xlink:href="#X"/><use transform="matrix(0.05,0,0,0.05,29,0)" xlink:href="#ai"/><use transform="matrix(0.05,0,0,0.05,34.95,0)" xlink:href="#X"/><use transform="matrix(0.05,0,0,0.05,44.95,0)" xlink:href="#af"/><use transform="matrix(0.05,0,0,0.05,53.95,0)" xlink:href="#P"/><use transform="matrix(0.05,0,0,0.05,58.95,0)" xlink:href="#R"/><use transform="matrix(0.05,0,0,0.05,68.95,0)" xlink:href="#ai"/><use transform="matrix(0.05,0,0,0.05,74.9,0)" xlink:href="#ag"/><use transform="matrix(0.05,0,0,0.05,84.9,0)" xlink:href="#M"/><use transform="matrix(0.05,0,0,0.05,88.85000000000001,0)" xlink:href="#N"/></g><path fill="#b2b2b2" d="M24-248c120-7 223 5 221 122C244-46 201 0 124 0H24v-248zM76-40c74 7 117-18 117-86 0-67-45-88-117-82v168" id="aj"/><path fill="#b2b2b2" d="M182-130c37 4 62 22 62 59C244 23 116-4 24 0v-248c84 5 203-23 205 63 0 31-19 50-47 55zM76-148c40-3 101 13 101-30 0-44-60-28-101-31v61zm0 110c48-3 116 14 116-37 0-48-69-32-116-35v72" id="ak"/><g id="k"><use transform="matrix(0.07407407407407408,0,0,0.07407407407407408,0,0)" xlink:href="#aj"/><use transform="matrix(0.07407407407407408,0,0,0.07407407407407408,19.185185185185187,0)" xlink:href="#ak"/></g><path fill="#b2b2b2" d="M199 0l-22-63H83L61 0H9l90-248h61L250 0h-51zm-33-102l-36-108c-10 38-24 72-36 108h72" id="al"/><path fill="#b2b2b2" d="M128 0H69L1-190h53L99-40l48-150h52" id="am"/><path fill="#b2b2b2" d="M185-48c-13 30-37 53-82 52C43 2 14-33 14-96s30-98 90-98c62 0 83 45 84 108H66c0 31 8 55 39 56 18 0 30-7 34-22zm-45-69c5-46-57-63-70-21-2 6-4 13-4 21h74" id="an"/><path fill="#b2b2b2" d="M135-194c87-1 58 113 63 194h-50c-7-57 23-157-34-157-59 0-34 97-39 157H25l-1-190h47c2 12-1 28 3 38 12-26 28-41 61-42" id="ao"/><path fill="#b2b2b2" d="M195-6C206 82 75 100 31 46c-4-6-6-13-8-21l49-6c3 16 16 24 34 25 40 0 42-37 40-79-11 22-30 35-61 35-53 0-70-43-70-97 0-56 18-96 73-97 30 0 46 14 59 34l2-30h47zm-90-29c32 0 41-27 41-63 0-35-9-62-40-62-32 0-39 29-40 63 0 36 9 62 39 62" id="ap"/><path fill="#b2b2b2" d="M135-150c-39-12-60 13-60 57V0H25l-1-190h47c2 13-1 29 3 40 6-28 27-53 61-41v41" id="aq"/><path fill="#b2b2b2" d="M137-138c1-29-70-34-71-4 15 46 118 7 119 86 1 83-164 76-172 9l43-7c4 19 20 25 44 25 33 8 57-30 24-41C81-84 22-81 20-136c-2-80 154-74 161-7" id="ar"/><g id="l"><use transform="matrix(0.07407407407407408,0,0,0.07407407407407408,0,0)" xlink:href="#al"/><use transform="matrix(0.07407407407407408,0,0,0.07407407407407408,18.222222222222225,0)" xlink:href="#am"/><use transform="matrix(0.07407407407407408,0,0,0.07407407407407408,33.03703703703704,0)" xlink:href="#an"/><use transform="matrix(0.07407407407407408,0,0,0.07407407407407408,47.851851851851855,0)" xlink:href="#ao"/><use transform="matrix(0.07407407407407408,0,0,0.07407407407407408,64.07407407407408,0)" xlink:href="#ap"/><use transform="matrix(0.07407407407407408,0,0,0.07407407407407408,80.2962962962963,0)" xlink:href="#an"/><use transform="matrix(0.07407407407407408,0,0,0.07407407407407408,95.1111111111111,0)" xlink:href="#aq"/><use transform="matrix(0.07407407407407408,0,0,0.07407407407407408,105.48148148148148,0)" xlink:href="#ar"/></g><path fill="#b2b2b2" d="M30 0v-248h33v221h125V0H30" id="as"/><path fill="#b2b2b2" d="M84 4C-5 8 30-112 23-190h32v120c0 31 7 50 39 49 72-2 45-101 50-169h31l1 190h-30c-1-10 1-25-2-33-11 22-28 36-60 37" id="at"/><path fill="#b2b2b2" d="M24-231v-30h32v30H24zM24 0v-190h32V0H24" id="au"/><path fill="#b2b2b2" d="M135-143c-3-34-86-38-87 0 15 53 115 12 119 90S17 21 10-45l28-5c4 36 97 45 98 0-10-56-113-15-118-90-4-57 82-63 122-42 12 7 21 19 24 35" id="av"/><g id="m"><use transform="matrix(0.04320987654320988,0,0,0.04320987654320988,0,0)" xlink:href="#as"/><use transform="matrix(0.04320987654320988,0,0,0.04320987654320988,8.641975308641976,0)" xlink:href="#at"/><use transform="matrix(0.04320987654320988,0,0,0.04320987654320988,17.283950617283953,0)" xlink:href="#au"/><use transform="matrix(0.04320987654320988,0,0,0.04320987654320988,20.69753086419753,0)" xlink:href="#av"/></g><path fill="#b2b2b2" d="M233-177c-1 41-23 64-60 70L243 0h-38l-65-103H63V0H30v-248c88 3 205-21 203 71zM63-129c60-2 137 13 137-47 0-61-80-42-137-45v92" id="aw"/><path fill="#b2b2b2" d="M141-36C126-15 110 5 73 4 37 3 15-17 15-53c-1-64 63-63 125-63 3-35-9-54-41-54-24 1-41 7-42 31l-33-3c5-37 33-52 76-52 45 0 72 20 72 64v82c-1 20 7 32 28 27v20c-31 9-61-2-59-35zM48-53c0 20 12 33 32 33 41-3 63-29 60-74-43 2-92-5-92 41" id="ax"/><path fill="#b2b2b2" d="M9 0v-24l116-142H16v-24h144v24L44-24h123V0H9" id="ay"/><path fill="#b2b2b2" d="M100-194c62-1 85 37 85 99 1 63-27 99-86 99S16-35 15-95c0-66 28-99 85-99zM99-20c44 1 53-31 53-75 0-43-8-75-51-75s-53 32-53 75 10 74 51 75" id="az"/><g id="n"><use transform="matrix(0.04320987654320988,0,0,0.04320987654320988,0,0)" xlink:href="#aw"/><use transform="matrix(0.04320987654320988,0,0,0.04320987654320988,11.19135802469136,0)" xlink:href="#ax"/><use transform="matrix(0.04320987654320988,0,0,0.04320987654320988,19.833333333333336,0)" xlink:href="#ay"/><use transform="matrix(0.04320987654320988,0,0,0.04320987654320988,27.611111111111114,0)" xlink:href="#az"/></g><path fill="#b2b2b2" d="M32 76v-337h29V76H32" id="aA"/><use transform="matrix(0.04320987654320988,0,0,0.04320987654320988,0,0)" xlink:href="#aA" id="o"/><path fill="#b2b2b2" d="M190 0L58-211 59 0H30v-248h39L202-35l-2-213h31V0h-41" id="aB"/><path fill="#b2b2b2" d="M108 0H70L1-190h34L89-25l56-165h34" id="aC"/><path fill="#b2b2b2" d="M100-194c63 0 86 42 84 106H49c0 40 14 67 53 68 26 1 43-12 49-29l28 8c-11 28-37 45-77 45C44 4 14-33 15-96c1-61 26-98 85-98zm52 81c6-60-76-77-97-28-3 7-6 17-6 28h103" id="aD"/><path fill="#b2b2b2" d="M210-169c-67 3-38 105-44 169h-31v-121c0-29-5-50-35-48C34-165 62-65 56 0H25l-1-190h30c1 10-1 24 2 32 10-44 99-50 107 0 11-21 27-35 58-36 85-2 47 119 55 194h-31v-121c0-29-5-49-35-48" id="aE"/><path fill="#b2b2b2" d="M115-194c53 0 69 39 70 98 0 66-23 100-70 100C84 3 66-7 56-30L54 0H23l1-261h32v101c10-23 28-34 59-34zm-8 174c40 0 45-34 45-75 0-40-5-75-45-74-42 0-51 32-51 76 0 43 10 73 51 73" id="aF"/><path fill="#b2b2b2" d="M114-163C36-179 61-72 57 0H25l-1-190h30c1 12-1 29 2 39 6-27 23-49 58-41v29" id="aG"/><g id="p"><use transform="matrix(0.04320987654320988,0,0,0.04320987654320988,0,0)" xlink:href="#aB"/><use transform="matrix(0.04320987654320988,0,0,0.04320987654320988,11.19135802469136,0)" xlink:href="#az"/><use transform="matrix(0.04320987654320988,0,0,0.04320987654320988,19.833333333333336,0)" xlink:href="#aC"/><use transform="matrix(0.04320987654320988,0,0,0.04320987654320988,27.611111111111114,0)" xlink:href="#aD"/><use transform="matrix(0.04320987654320988,0,0,0.04320987654320988,36.25308641975309,0)" xlink:href="#aE"/><use transform="matrix(0.04320987654320988,0,0,0.04320987654320988,49.17283950617284,0)" xlink:href="#aF"/><use transform="matrix(0.04320987654320988,0,0,0.04320987654320988,57.814814814814824,0)" xlink:href="#aD"/><use transform="matrix(0.04320987654320988,0,0,0.04320987654320988,66.4567901234568,0)" xlink:href="#aG"/></g><path fill="#b2b2b2" d="M64 0c3-98 48-159 88-221H18v-27h164v26C143-157 98-101 97 0H64" id="aH"/><path fill="#b2b2b2" d="M68-38c1 34 0 65-14 84H32c9-13 17-26 17-46H33v-38h35" id="aI"/><g id="q"><use transform="matrix(0.04320987654320988,0,0,0.04320987654320988,0,0)" xlink:href="#aH"/><use transform="matrix(0.04320987654320988,0,0,0.04320987654320988,8.641975308641976,0)" xlink:href="#aI"/></g><path fill="#b2b2b2" d="M101-251c82-7 93 87 43 132L82-64C71-53 59-42 53-27h129V0H18c2-99 128-94 128-182 0-28-16-43-45-43s-46 15-49 41l-32-3c6-41 34-60 81-64" id="aJ"/><path fill="#b2b2b2" d="M101-251c68 0 85 55 85 127S166 4 100 4C33 4 14-52 14-124c0-73 17-127 87-127zm-1 229c47 0 54-49 54-102s-4-102-53-102c-51 0-55 48-55 102 0 53 5 102 54 102" id="aK"/><path fill="#b2b2b2" d="M27 0v-27h64v-190l-56 39v-29l58-41h29v221h61V0H27" id="aL"/><path fill="#b2b2b2" d="M99-251c64 0 84 50 84 122C183-37 130 33 47-8c-14-7-20-23-25-40l30-5c6 39 69 39 84 7 9-19 16-44 16-74-10 22-31 35-62 35-49 0-73-33-73-83 0-54 28-83 82-83zm-1 141c31-1 51-18 51-49 0-36-14-67-51-67-34 0-49 23-49 58 0 34 15 58 49 58" id="aM"/><g id="r"><use transform="matrix(0.04320987654320988,0,0,0.04320987654320988,0,0)" xlink:href="#aJ"/><use transform="matrix(0.04320987654320988,0,0,0.04320987654320988,8.641975308641976,0)" xlink:href="#aK"/><use transform="matrix(0.04320987654320988,0,0,0.04320987654320988,17.283950617283953,0)" xlink:href="#aL"/><use transform="matrix(0.04320987654320988,0,0,0.04320987654320988,25.925925925925927,0)" xlink:href="#aM"/></g><g id="s"><use transform="matrix(0.015555555555555557,0,0,0.015555555555555557,0,0)" xlink:href="#H"/><use transform="matrix(0.015555555555555557,0,0,0.015555555555555557,6.6577777777777785,0)" xlink:href="#H"/><use transform="matrix(0.015555555555555557,0,0,0.015555555555555557,13.673333333333336,0)" xlink:href="#ab"/><use transform="matrix(0.015555555555555557,0,0,0.015555555555555557,18.962222222222223,0)" xlink:href="#ad"/><use transform="matrix(0.015555555555555557,0,0,0.015555555555555557,26.864444444444445,0)" xlink:href="#aa"/><use transform="matrix(0.015555555555555557,0,0,0.015555555555555557,34.58,0)" xlink:href="#ac"/><use transform="matrix(0.015555555555555557,0,0,0.015555555555555557,39.68222222222222,0)" xlink:href="#I"/><use transform="matrix(0.015555555555555557,0,0,0.015555555555555557,48.02,0)" xlink:href="#ab"/><use transform="matrix(0.015555555555555557,0,0,0.015555555555555557,53.308888888888895,0)" xlink:href="#L"/></g><path d="M84 4C-5 8 30-112 23-190h32v120c0 31 7 50 39 49 72-2 45-101 50-169h31l1 190h-30c-1-10 1-25-2-33-11 22-28 36-60 37" id="aN"/><g id="t"><use transform="matrix(0.05,0,0,0.05,0,0)" xlink:href="#V"/><use transform="matrix(0.05,0,0,0.05,5,0)" xlink:href="#aN"/><use transform="matrix(0.05,0,0,0.05,15,0)" xlink:href="#Q"/><use transform="matrix(0.05,0,0,0.05,18.95,0)" xlink:href="#Q"/><use transform="matrix(0.05,0,0,0.05,22.9,0)" xlink:href="#ag"/><use transform="matrix(0.05,0,0,0.05,32.9,0)" xlink:href="#O"/><use transform="matrix(0.05,0,0,0.05,42.9,0)" xlink:href="#X"/><use transform="matrix(0.05,0,0,0.05,52.900000000000006,0)" xlink:href="#T"/><use transform="matrix(0.05,0,0,0.05,67.85,0)" xlink:href="#R"/></g><g id="u"><use transform="matrix(0.015555555555555557,0,0,0.015555555555555557,0,0)" xlink:href="#H"/><use transform="matrix(0.015555555555555557,0,0,0.015555555555555557,7.015555555555556,0)" xlink:href="#ab"/><use transform="matrix(0.015555555555555557,0,0,0.015555555555555557,12.304444444444446,0)" xlink:href="#ad"/><use transform="matrix(0.015555555555555557,0,0,0.015555555555555557,20.20666666666667,0)" xlink:href="#aa"/><use transform="matrix(0.015555555555555557,0,0,0.015555555555555557,27.922222222222228,0)" xlink:href="#ac"/><use transform="matrix(0.015555555555555557,0,0,0.015555555555555557,33.024444444444455,0)" xlink:href="#I"/><use transform="matrix(0.015555555555555557,0,0,0.015555555555555557,41.362222222222236,0)" xlink:href="#ab"/><use transform="matrix(0.015555555555555557,0,0,0.015555555555555557,46.65111111111113,0)" xlink:href="#ae"/><use transform="matrix(0.015555555555555557,0,0,0.015555555555555557,52.9977777777778,0)" xlink:href="#H"/><use transform="matrix(0.015555555555555557,0,0,0.015555555555555557,59.65555555555558,0)" xlink:href="#I"/><use transform="matrix(0.015555555555555557,0,0,0.015555555555555557,67.99333333333335,0)" xlink:href="#J"/><use transform="matrix(0.015555555555555557,0,0,0.015555555555555557,80.62444444444446,0)" xlink:href="#K"/><use transform="matrix(0.015555555555555557,0,0,0.015555555555555557,84.79333333333335,0)" xlink:href="#H"/></g><g id="v"><use transform="matrix(0.05,0,0,0.05,0,0)" xlink:href="#af"/><use transform="matrix(0.05,0,0,0.05,9,0)" xlink:href="#ai"/><use transform="matrix(0.05,0,0,0.05,14.949999999999998,0)" xlink:href="#R"/><use transform="matrix(0.05,0,0,0.05,24.95,0)" xlink:href="#X"/><use transform="matrix(0.05,0,0,0.05,34.95,0)" xlink:href="#P"/><use transform="matrix(0.05,0,0,0.05,39.95,0)" xlink:href="#U"/><use transform="matrix(0.05,0,0,0.05,49.95,0)" xlink:href="#ai"/><use transform="matrix(0.05,0,0,0.05,55.900000000000006,0)" xlink:href="#ag"/><use transform="matrix(0.05,0,0,0.05,65.9,0)" xlink:href="#M"/><use transform="matrix(0.05,0,0,0.05,69.85000000000001,0)" xlink:href="#N"/></g><g id="w"><use transform="matrix(0.05,0,0,0.05,0,0)" xlink:href="#ai"/><use transform="matrix(0.05,0,0,0.05,5.95,0)" xlink:href="#U"/><use transform="matrix(0.05,0,0,0.05,15.949999999999998,0)" xlink:href="#Q"/><use transform="matrix(0.05,0,0,0.05,19.9,0)" xlink:href="#R"/></g><g id="x"><use transform="matrix(0.015555555555555557,0,0,0.015555555555555557,0,0)" xlink:href="#H"/><use transform="matrix(0.015555555555555557,0,0,0.015555555555555557,7.015555555555556,0)" xlink:href="#Z"/><use transform="matrix(0.015555555555555557,0,0,0.015555555555555557,15.524444444444446,0)" xlink:href="#aa"/><use transform="matrix(0.015555555555555557,0,0,0.015555555555555557,23.240000000000002,0)" xlink:href="#ab"/><use transform="matrix(0.015555555555555557,0,0,0.015555555555555557,28.528888888888893,0)" xlink:href="#aa"/><use transform="matrix(0.015555555555555557,0,0,0.015555555555555557,36.24444444444445,0)" xlink:href="#H"/><use transform="matrix(0.015555555555555557,0,0,0.015555555555555557,43.260000000000005,0)" xlink:href="#ac"/><use transform="matrix(0.015555555555555557,0,0,0.015555555555555557,48.36222222222223,0)" xlink:href="#ad"/><use transform="matrix(0.015555555555555557,0,0,0.015555555555555557,56.26444444444445,0)" xlink:href="#ab"/><use transform="matrix(0.015555555555555557,0,0,0.015555555555555557,61.55333333333334,0)" xlink:href="#L"/></g><g id="y"><use transform="matrix(0.05,0,0,0.05,0,0)" xlink:href="#M"/><use transform="matrix(0.05,0,0,0.05,3.95,0)" xlink:href="#N"/></g><g id="z"><use transform="matrix(0.05,0,0,0.05,0,0)" xlink:href="#M"/><use transform="matrix(0.05,0,0,0.05,3.95,0)" xlink:href="#O"/><use transform="matrix(0.05,0,0,0.05,13.949999999999998,0)" xlink:href="#P"/></g><g id="A"><use transform="matrix(0.05,0,0,0.05,0,0)" xlink:href="#O"/><use transform="matrix(0.05,0,0,0.05,10,0)" xlink:href="#X"/><use transform="matrix(0.05,0,0,0.05,20,0)" xlink:href="#T"/><use transform="matrix(0.05,0,0,0.05,34.95,0)" xlink:href="#R"/></g><g id="B"><use transform="matrix(0.05,0,0,0.05,0,0)" xlink:href="#P"/><use transform="matrix(0.05,0,0,0.05,5,0)" xlink:href="#R"/><use transform="matrix(0.05,0,0,0.05,15,0)" xlink:href="#S"/><use transform="matrix(0.05,0,0,0.05,24,0)" xlink:href="#P"/></g><g id="C"><use transform="matrix(0.05,0,0,0.05,0,0)" xlink:href="#T"/><use transform="matrix(0.05,0,0,0.05,14.950000000000001,0)" xlink:href="#U"/><use transform="matrix(0.05,0,0,0.05,24.950000000000003,0)" xlink:href="#N"/><use transform="matrix(0.05,0,0,0.05,34.95,0)" xlink:href="#M"/><use transform="matrix(0.05,0,0,0.05,38.900000000000006,0)" xlink:href="#V"/><use transform="matrix(0.05,0,0,0.05,43.900000000000006,0)" xlink:href="#M"/><use transform="matrix(0.05,0,0,0.05,47.85000000000001,0)" xlink:href="#R"/><use transform="matrix(0.05,0,0,0.05,57.85,0)" xlink:href="#N"/></g><g id="D"><use transform="matrix(0.05,0,0,0.05,0,0)" xlink:href="#P"/><use transform="matrix(0.05,0,0,0.05,5,0)" xlink:href="#M"/><use transform="matrix(0.05,0,0,0.05,8.95,0)" xlink:href="#T"/><use transform="matrix(0.05,0,0,0.05,23.9,0)" xlink:href="#R"/><use transform="matrix(0.05,0,0,0.05,33.9,0)" xlink:href="#W"/><use transform="matrix(0.05,0,0,0.05,42.9,0)" xlink:href="#P"/><use transform="matrix(0.05,0,0,0.05,47.9,0)" xlink:href="#X"/><use transform="matrix(0.05,0,0,0.05,57.900000000000006,0)" xlink:href="#T"/><use transform="matrix(0.05,0,0,0.05,72.85,0)" xlink:href="#Y"/></g><path fill="#666" d="M290-509c71-1 121 13 170 30V23c0 132-72 189-204 189-71 0-115-8-159-27l21-68c37 13 69 25 124 25 122 0 148-66 139-191h-4c-28 39-65 61-132 60C95 9 50-86 49-248c-1-166 78-261 241-261zM132-249c2 104 25 190 127 190 75 0 106-39 121-105v-256c-27-13-61-19-102-19-103 0-147 74-146 190" id="aO"/><g id="E"><use transform="matrix(0.015555555555555557,0,0,0.015555555555555557,0,0)" xlink:href="#ac"/><use transform="matrix(0.015555555555555557,0,0,0.015555555555555557,5.273333333333333,0)" xlink:href="#aa"/><use transform="matrix(0.015555555555555557,0,0,0.015555555555555557,12.98888888888889,0)" xlink:href="#ab"/><use transform="matrix(0.015555555555555557,0,0,0.015555555555555557,18.27777777777778,0)" xlink:href="#aO"/><use transform="matrix(0.015555555555555557,0,0,0.015555555555555557,26.63111111111111,0)" xlink:href="#ad"/><use transform="matrix(0.015555555555555557,0,0,0.015555555555555557,34.53333333333333,0)" xlink:href="#ac"/><use transform="matrix(0.015555555555555557,0,0,0.015555555555555557,39.806666666666665,0)" xlink:href="#ae"/><use transform="matrix(0.015555555555555557,0,0,0.015555555555555557,46.153333333333336,0)" xlink:href="#H"/><use transform="matrix(0.015555555555555557,0,0,0.015555555555555557,53.168888888888894,0)" xlink:href="#Z"/><use transform="matrix(0.015555555555555557,0,0,0.015555555555555557,61.677777777777784,0)" xlink:href="#aa"/><use transform="matrix(0.015555555555555557,0,0,0.015555555555555557,69.39333333333335,0)" xlink:href="#ab"/><use transform="matrix(0.015555555555555557,0,0,0.015555555555555557,74.68222222222224,0)" xlink:href="#aa"/><use transform="matrix(0.015555555555555557,0,0,0.015555555555555557,82.39777777777779,0)" xlink:href="#H"/><use transform="matrix(0.015555555555555557,0,0,0.015555555555555557,89.41333333333334,0)" xlink:href="#ac"/><use transform="matrix(0.015555555555555557,0,0,0.015555555555555557,94.51555555555555,0)" xlink:href="#ad"/><use transform="matrix(0.015555555555555557,0,0,0.015555555555555557,102.41777777777777,0)" xlink:href="#ab"/><use transform="matrix(0.015555555555555557,0,0,0.015555555555555557,107.70666666666666,0)" xlink:href="#L"/></g><g id="F"><use transform="matrix(0.05,0,0,0.05,0,0)" xlink:href="#O"/><use transform="matrix(0.05,0,0,0.05,10,0)" xlink:href="#X"/><use transform="matrix(0.05,0,0,0.05,20,0)" xlink:href="#T"/><use transform="matrix(0.05,0,0,0.05,34.95,0)" xlink:href="#R"/></g><g id="G"><use transform="matrix(0.05,0,0,0.05,0,0)" xlink:href="#af"/><use transform="matrix(0.05,0,0,0.05,9,0)" xlink:href="#ah"/><use transform="matrix(0.05,0,0,0.05,19,0)" xlink:href="#X"/><use transform="matrix(0.05,0,0,0.05,29,0)" xlink:href="#ai"/><use transform="matrix(0.05,0,0,0.05,34.95,0)" xlink:href="#X"/><use transform="matrix(0.05,0,0,0.05,44.95,0)" xlink:href="#af"/><use transform="matrix(0.05,0,0,0.05,53.95,0)" xlink:href="#P"/><use transform="matrix(0.05,0,0,0.05,58.95,0)" xlink:href="#R"/><use transform="matrix(0.05,0,0,0.05,68.95,0)" xlink:href="#ai"/><use transform="matrix(0.05,0,0,0.05,74.9,0)" xlink:href="#ag"/><use transform="matrix(0.05,0,0,0.05,84.9,0)" xlink:href="#M"/><use transform="matrix(0.05,0,0,0.05,88.85000000000001,0)" xlink:href="#N"/></g></defs></g></svg>