<svg xmlns="http://www.w3.org/2000/svg" xmlns:xlink="http://www.w3.org/1999/xlink" xmlns:lucid="lucid" width="1480" height="1060"><g transform="translate(-240 -100)" lucid:page-tab-id="0_0"><path d="M640 120h160v120H640z" stroke="#000" stroke-width="2" fill="#fff"/><use xlink:href="#a" transform="matrix(1,0,0,1,645,125) translate(14.599999999999994 59.0875)"/><use xlink:href="#b" transform="matrix(1,0,0,1,645,125) translate(75.55 59.0875)"/><path d="M1280 120h160v120h-160z" stroke="#000" stroke-width="2" fill="#fff"/><use xlink:href="#a" transform="matrix(1,0,0,1,1285,125) translate(0.5999999999999943 59.0875)"/><use xlink:href="#c" transform="matrix(1,0,0,1,1285,125) translate(61.55 59.0875)"/><path d="M260 120h160v120H260z" stroke="#000" stroke-width="2" fill="#fff"/><use xlink:href="#a" transform="matrix(1,0,0,1,265,125) translate(10.099999999999994 59.0875)"/><use xlink:href="#d" transform="matrix(1,0,0,1,265,125) translate(71.05 59.0875)"/><path d="M260 320h160v120H260z" stroke="#000" stroke-width="2" fill="#fff"/><use xlink:href="#e" transform="matrix(1,0,0,1,265,325) translate(14.624999999999993 59.0875)"/><use xlink:href="#d" transform="matrix(1,0,0,1,265,325) translate(66.525 59.0875)"/><path d="M520 540h160v120H520z" stroke="#000" stroke-width="2" fill="#fff"/><use xlink:href="#e" transform="matrix(1,0,0,1,525,545) translate(19.124999999999993 59.0875)"/><use xlink:href="#b" transform="matrix(1,0,0,1,525,545) translate(71.025 59.0875)"/><path d="M1280 300h160v120h-160z" stroke="#000" stroke-width="2" fill="#fff"/><use xlink:href="#e" transform="matrix(1,0,0,1,1285,305) translate(5.125 59.0875)"/><use xlink:href="#c" transform="matrix(1,0,0,1,1285,305) translate(57.025000000000006 59.0875)"/><path d="M780 540h160v120H780z" stroke="#000" stroke-width="2" fill="#fff"/><use xlink:href="#f" transform="matrix(1,0,0,1,785,545) translate(51.55 48.775)"/><use xlink:href="#g" transform="matrix(1,0,0,1,785,545) translate(7.674999999999983 70.375)"/><path d="M640 320h160v120H640z" stroke="#000" stroke-width="2" fill="#fff"/><use xlink:href="#h" transform="matrix(1,0,0,1,645,325) translate(7.625 48.775)"/><use xlink:href="#i" transform="matrix(1,0,0,1,645,325) translate(47.525 48.775)"/><use xlink:href="#j" transform="matrix(1,0,0,1,645,325) translate(112.375 48.775)"/><use xlink:href="#g" transform="matrix(1,0,0,1,645,325) translate(7.674999999999983 70.375)"/><path d="M1280 500h160v120h-160z" stroke="#000" stroke-width="2" fill="#fff"/><use xlink:href="#k" transform="matrix(1,0,0,1,1285,505) translate(47.025 47.8)"/><use xlink:href="#l" transform="matrix(1,0,0,1,1285,505) translate(-1.8250000000000028 69.4)"/><path d="M1280 700h160v120h-160z" stroke="#000" stroke-width="2" fill="#fff"/><use xlink:href="#f" transform="matrix(1,0,0,1,1285,705) translate(51.55 47.8)"/><use xlink:href="#l" transform="matrix(1,0,0,1,1285,705) translate(-1.8250000000000028 69.4)"/><path d="M340 242v58.5" stroke="#000" stroke-width="2" fill="none"/><path d="M341 242.03h-2V241h2z"/><path d="M340 315.76l-4.64-14.26h9.28z" stroke="#000" stroke-width="2"/><path d="M720 242v58.5" stroke="#000" stroke-width="2" fill="none"/><path d="M721 242.03h-2V241h2z"/><path d="M720 315.76l-4.64-14.26h9.28z" stroke="#000" stroke-width="2"/><path d="M1360 242v38.5" stroke="#000" stroke-width="2" fill="none"/><path d="M1361 242.03h-2V241h2z"/><path d="M1360 295.76l-4.64-14.26h9.28z" stroke="#000" stroke-width="2"/><path d="M1360 622v58.5" stroke="#000" stroke-width="2" fill="none"/><path d="M1361 622.03h-2V621h2z"/><path d="M1360 695.76l-4.64-14.26h9.28z" stroke="#000" stroke-width="2"/><path d="M720 442v48H600v30.5" stroke="#000" stroke-width="2" fill="none"/><path d="M721 442.03h-2V441h2z"/><path d="M600 535.76l-4.64-14.26h9.28z" stroke="#000" stroke-width="2"/><path d="M720 442v48h140v30.5" stroke="#000" stroke-width="2" fill="none"/><path d="M721 442.03h-2V441h2z"/><path d="M860 535.76l-4.64-14.26h9.28z" stroke="#000" stroke-width="2"/><path d="M260 540h160v120H260z" stroke="#000" stroke-width="2" fill="#fff"/><use xlink:href="#m" transform="matrix(1,0,0,1,265,545) translate(17.574999999999996 59.0875)"/><use xlink:href="#d" transform="matrix(1,0,0,1,265,545) translate(63.574999999999996 59.0875)"/><path d="M340 442v78.5" stroke="#000" stroke-width="2" fill="none"/><path d="M341 442.03h-2V441h2z"/><path d="M340 535.76l-4.64-14.26h9.28z" stroke="#000" stroke-width="2"/><path d="M520 760h160v120H520z" stroke="#000" stroke-width="2" fill="#fff"/><use xlink:href="#m" transform="matrix(1,0,0,1,525,765) translate(22.074999999999996 59.0875)"/><use xlink:href="#b" transform="matrix(1,0,0,1,525,765) translate(68.07499999999999 59.0875)"/><path d="M780 760h160v120H780z" stroke="#000" stroke-width="2" fill="#fff"/><use xlink:href="#n" transform="matrix(1,0,0,1,785,765) translate(54.5 48.775)"/><use xlink:href="#g" transform="matrix(1,0,0,1,785,765) translate(7.674999999999983 70.375)"/><path d="M1020 500h160v120h-160z" stroke="#000" stroke-width="2" fill="#fff"/><use xlink:href="#m" transform="matrix(1,0,0,1,1025,505) translate(8.074999999999989 59.0875)"/><use xlink:href="#c" transform="matrix(1,0,0,1,1025,505) translate(54.07499999999999 59.0875)"/><path d="M1280 880h160v120h-160z" stroke="#000" stroke-width="2" fill="#fff"/><use xlink:href="#n" transform="matrix(1,0,0,1,1285,885) translate(54.5 47.8)"/><use xlink:href="#l" transform="matrix(1,0,0,1,1285,885) translate(-1.8250000000000028 69.4)"/><path d="M1360 422v38h-260v20.5" stroke="#000" stroke-width="2" fill="none"/><path d="M1361 422.03h-2V421h2z"/><path d="M1100 495.76l-4.64-14.26h9.28z" stroke="#000" stroke-width="2"/><path d="M1360 822v38.5" stroke="#000" stroke-width="2" fill="none"/><path d="M1361 822.03h-2V821h2z"/><path d="M1360 875.76l-4.64-14.26h9.28z" stroke="#000" stroke-width="2"/><path d="M860 662v78.5" stroke="#000" stroke-width="2" fill="none"/><path d="M861 662.03h-2V661h2z"/><path d="M860 755.76l-4.64-14.26h9.28z" stroke="#000" stroke-width="2"/><path d="M600 662v78.5" stroke="#000" stroke-width="2" fill="none"/><path d="M601 662.03h-2V661h2z"/><path d="M600 755.76l-4.64-14.26h9.28z" stroke="#000" stroke-width="2"/><path d="M1540 500h160v120h-160z" stroke="#000" stroke-width="2" fill="#fff"/><use xlink:href="#a" transform="matrix(1,0,0,1,1545,505) translate(19.574999999999996 48.775)"/><use xlink:href="#o" transform="matrix(1,0,0,1,1545,505) translate(80.525 48.775)"/><use xlink:href="#c" transform="matrix(1,0,0,1,1545,505) translate(31.074999999999996 70.375)"/><path d="M1540 700h160v120h-160z" stroke="#000" stroke-width="2" fill="#fff"/><use xlink:href="#e" transform="matrix(1,0,0,1,1545,705) translate(24.099999999999994 48.775)"/><use xlink:href="#o" transform="matrix(1,0,0,1,1545,705) translate(76 48.775)"/><use xlink:href="#c" transform="matrix(1,0,0,1,1545,705) translate(31.074999999999996 70.375)"/><path d="M1620 622v58.5" stroke="#000" stroke-width="2" fill="none"/><path d="M1621 622.03h-2V621h2z"/><path d="M1620 695.76l-4.64-14.26h9.28z" stroke="#000" stroke-width="2"/><path d="M1540 880h160v120h-160z" stroke="#000" stroke-width="2" fill="#fff"/><use xlink:href="#m" transform="matrix(1,0,0,1,1545,885) translate(27.049999999999997 48.775)"/><use xlink:href="#o" transform="matrix(1,0,0,1,1545,885) translate(73.05 48.775)"/><use xlink:href="#c" transform="matrix(1,0,0,1,1545,885) translate(31.074999999999996 70.375)"/><path d="M1620 822v38.5" stroke="#000" stroke-width="2" fill="none"/><path d="M1621 822.03h-2V821h2z"/><path d="M1620 875.76l-4.64-14.26h9.28z" stroke="#000" stroke-width="2"/><path d="M660 1000h160v120H660z" stroke="#000" stroke-width="2" fill="#fff"/><use xlink:href="#p" transform="matrix(1,0,0,1,665,1005) translate(1.125 59.0875)"/><use xlink:href="#q" transform="matrix(1,0,0,1,665,1005) translate(80.97500000000001 59.0875)"/><path d="M940 1000h160v120H940z" stroke="#000" stroke-width="2" fill="#fff"/><use xlink:href="#p" transform="matrix(1,0,0,1,945,1005) translate(0.6499999999999915 59.0875)"/><use xlink:href="#d" transform="matrix(1,0,0,1,945,1005) translate(80.5 59.0875)"/><path d="M600 980h580v160H600z" stroke="#000" stroke-width="2" fill-opacity="0"/><path d="M340 662v398h240.5" stroke="#000" stroke-width="2" fill="none"/><path d="M341 662.03h-2V661h2z"/><path d="M595.76 1060l-14.26 4.64v-9.28z" stroke="#000" stroke-width="2"/><path d="M600 882v48h290v30.5" stroke="#000" stroke-width="2" fill="none"/><path d="M601 882.03h-2V881h2z"/><path d="M890 975.76l-4.64-14.26h9.28z" stroke="#000" stroke-width="2"/><path d="M860 882v48h30v30.5" stroke="#000" stroke-width="2" fill="none"/><path d="M861 882.03h-2V881h2z"/><path d="M890 975.76l-4.64-14.26h9.28z" stroke="#000" stroke-width="2"/><path d="M1100 622v39h121v399h-21.5" stroke="#000" stroke-width="2" fill="none"/><path d="M1101 622.03h-2V621h2z"/><path d="M1184.24 1060l14.26-4.64v9.28z" stroke="#000" stroke-width="2"/><path d="M1360 1002v58h-160.5" stroke="#000" stroke-width="2" fill="none"/><path d="M1361 1002.03h-2V1001h2z"/><path d="M1184.24 1060l14.26-4.64v9.28z" stroke="#000" stroke-width="2"/><path d="M1620 1002v58h-420.5" stroke="#000" stroke-width="2" fill="none"/><path d="M1621 1002.03h-2V1001h2z"/><path d="M1184.24 1060l14.26-4.64v9.28z" stroke="#000" stroke-width="2"/><path d="M1360 422v58.5" stroke="#000" stroke-width="2" fill="none"/><path d="M1361 422.03h-2V421h2z"/><path d="M1360 495.76l-4.64-14.26h9.28z" stroke="#000" stroke-width="2"/><path d="M1360 422v38h260v20.5" stroke="#000" stroke-width="2" fill="none"/><path d="M1361 422.03h-2V421h2z"/><path d="M1620 495.76l-4.64-14.26h9.28z" stroke="#000" stroke-width="2"/><defs><path d="M30 0v-248h187v28H63v79h144v27H63v87h162V0H30" id="r"/><path d="M141 0L90-78 38 0H4l68-98-65-92h35l48 74 47-74h35l-64 92 68 98h-35" id="s"/><path d="M59-47c-2 24 18 29 38 22v24C64 9 27 4 27-40v-127H5v-23h24l9-43h21v43h35v23H59v120" id="t"/><path d="M114-163C36-179 61-72 57 0H25l-1-190h30c1 12-1 29 2 39 6-27 23-49 58-41v29" id="u"/><path d="M141-36C126-15 110 5 73 4 37 3 15-17 15-53c-1-64 63-63 125-63 3-35-9-54-41-54-24 1-41 7-42 31l-33-3c5-37 33-52 76-52 45 0 72 20 72 64v82c-1 20 7 32 28 27v20c-31 9-61-2-59-35zM48-53c0 20 12 33 32 33 41-3 63-29 60-74-43 2-92-5-92 41" id="v"/><path d="M96-169c-40 0-48 33-48 73s9 75 48 75c24 0 41-14 43-38l32 2c-6 37-31 61-74 61-59 0-76-41-82-99-10-93 101-131 147-64 4 7 5 14 7 22l-32 3c-4-21-16-35-41-35" id="w"/><g id="a"><use transform="matrix(0.05,0,0,0.05,0,0)" xlink:href="#r"/><use transform="matrix(0.05,0,0,0.05,12,0)" xlink:href="#s"/><use transform="matrix(0.05,0,0,0.05,21,0)" xlink:href="#t"/><use transform="matrix(0.05,0,0,0.05,26,0)" xlink:href="#u"/><use transform="matrix(0.05,0,0,0.05,31.950000000000003,0)" xlink:href="#v"/><use transform="matrix(0.05,0,0,0.05,41.95,0)" xlink:href="#w"/><use transform="matrix(0.05,0,0,0.05,50.95,0)" xlink:href="#t"/></g><path d="M212-179c-10-28-35-45-73-45-59 0-87 40-87 99 0 60 29 101 89 101 43 0 62-24 78-52l27 14C228-24 195 4 139 4 59 4 22-46 18-125c-6-104 99-153 187-111 19 9 31 26 39 46" id="x"/><path d="M100-194c62-1 85 37 85 99 1 63-27 99-86 99S16-35 15-95c0-66 28-99 85-99zM99-20c44 1 53-31 53-75 0-43-8-75-51-75s-53 32-53 75 10 74 51 75" id="y"/><path d="M210-169c-67 3-38 105-44 169h-31v-121c0-29-5-50-35-48C34-165 62-65 56 0H25l-1-190h30c1 10-1 24 2 32 10-44 99-50 107 0 11-21 27-35 58-36 85-2 47 119 55 194h-31v-121c0-29-5-49-35-48" id="z"/><path d="M24-231v-30h32v30H24zM24 0v-190h32V0H24" id="A"/><path d="M135-143c-3-34-86-38-87 0 15 53 115 12 119 90S17 21 10-45l28-5c4 36 97 45 98 0-10-56-113-15-118-90-4-57 82-63 122-42 12 7 21 19 24 35" id="B"/><g id="b"><use transform="matrix(0.05,0,0,0.05,0,0)" xlink:href="#x"/><use transform="matrix(0.05,0,0,0.05,12.950000000000001,0)" xlink:href="#y"/><use transform="matrix(0.05,0,0,0.05,22.950000000000003,0)" xlink:href="#z"/><use transform="matrix(0.05,0,0,0.05,37.900000000000006,0)" xlink:href="#A"/><use transform="matrix(0.05,0,0,0.05,41.85000000000001,0)" xlink:href="#w"/><use transform="matrix(0.05,0,0,0.05,50.85000000000001,0)" xlink:href="#B"/></g><path d="M106-169C34-169 62-67 57 0H25v-261h32l-1 103c12-21 28-36 61-36 89 0 53 116 60 194h-32v-121c2-32-8-49-39-48" id="C"/><path d="M100-194c63 0 86 42 84 106H49c0 40 14 67 53 68 26 1 43-12 49-29l28 8c-11 28-37 45-77 45C44 4 14-33 15-96c1-61 26-98 85-98zm52 81c6-60-76-77-97-28-3 7-6 17-6 28h103" id="D"/><g id="c"><use transform="matrix(0.05,0,0,0.05,0,0)" xlink:href="#x"/><use transform="matrix(0.05,0,0,0.05,12.950000000000001,0)" xlink:href="#C"/><use transform="matrix(0.05,0,0,0.05,22.950000000000003,0)" xlink:href="#v"/><use transform="matrix(0.05,0,0,0.05,32.95,0)" xlink:href="#u"/><use transform="matrix(0.05,0,0,0.05,38.900000000000006,0)" xlink:href="#v"/><use transform="matrix(0.05,0,0,0.05,48.900000000000006,0)" xlink:href="#w"/><use transform="matrix(0.05,0,0,0.05,57.900000000000006,0)" xlink:href="#t"/><use transform="matrix(0.05,0,0,0.05,62.900000000000006,0)" xlink:href="#D"/><use transform="matrix(0.05,0,0,0.05,72.9,0)" xlink:href="#u"/><use transform="matrix(0.05,0,0,0.05,78.85000000000001,0)" xlink:href="#B"/></g><g id="d"><use transform="matrix(0.05,0,0,0.05,0,0)" xlink:href="#x"/><use transform="matrix(0.05,0,0,0.05,12.950000000000001,0)" xlink:href="#u"/><use transform="matrix(0.05,0,0,0.05,18.900000000000002,0)" xlink:href="#D"/><use transform="matrix(0.05,0,0,0.05,28.900000000000002,0)" xlink:href="#v"/><use transform="matrix(0.05,0,0,0.05,38.900000000000006,0)" xlink:href="#t"/><use transform="matrix(0.05,0,0,0.05,43.900000000000006,0)" xlink:href="#y"/><use transform="matrix(0.05,0,0,0.05,53.900000000000006,0)" xlink:href="#u"/><use transform="matrix(0.05,0,0,0.05,59.85,0)" xlink:href="#B"/></g><path d="M24 0v-261h32V0H24" id="E"/><path d="M117-194c89-4 53 116 60 194h-32v-121c0-31-8-49-39-48C34-167 62-67 57 0H25l-1-190h30c1 10-1 24 2 32 11-22 29-35 61-36" id="F"/><g id="e"><use transform="matrix(0.05,0,0,0.05,0,0)" xlink:href="#x"/><use transform="matrix(0.05,0,0,0.05,12.950000000000001,0)" xlink:href="#E"/><use transform="matrix(0.05,0,0,0.05,16.900000000000002,0)" xlink:href="#D"/><use transform="matrix(0.05,0,0,0.05,26.900000000000002,0)" xlink:href="#v"/><use transform="matrix(0.05,0,0,0.05,36.900000000000006,0)" xlink:href="#F"/></g><g id="f"><use transform="matrix(0.05,0,0,0.05,0,0)" xlink:href="#x"/><use transform="matrix(0.05,0,0,0.05,12.950000000000001,0)" xlink:href="#E"/><use transform="matrix(0.05,0,0,0.05,16.900000000000002,0)" xlink:href="#D"/><use transform="matrix(0.05,0,0,0.05,26.900000000000002,0)" xlink:href="#v"/><use transform="matrix(0.05,0,0,0.05,36.900000000000006,0)" xlink:href="#F"/></g><path d="M16-82v-28h88v28H16" id="G"/><g id="g"><use transform="matrix(0.05,0,0,0.05,0,0)" xlink:href="#x"/><use transform="matrix(0.05,0,0,0.05,12.950000000000001,0)" xlink:href="#u"/><use transform="matrix(0.05,0,0,0.05,18.900000000000002,0)" xlink:href="#D"/><use transform="matrix(0.05,0,0,0.05,28.900000000000002,0)" xlink:href="#v"/><use transform="matrix(0.05,0,0,0.05,38.900000000000006,0)" xlink:href="#t"/><use transform="matrix(0.05,0,0,0.05,43.900000000000006,0)" xlink:href="#y"/><use transform="matrix(0.05,0,0,0.05,53.900000000000006,0)" xlink:href="#u"/><use transform="matrix(0.05,0,0,0.05,59.85,0)" xlink:href="#B"/><use transform="matrix(0.05,0,0,0.05,68.85000000000001,0)" xlink:href="#G"/><use transform="matrix(0.05,0,0,0.05,74.80000000000001,0)" xlink:href="#x"/><use transform="matrix(0.05,0,0,0.05,87.75000000000001,0)" xlink:href="#y"/><use transform="matrix(0.05,0,0,0.05,97.75000000000001,0)" xlink:href="#z"/><use transform="matrix(0.05,0,0,0.05,112.7,0)" xlink:href="#A"/><use transform="matrix(0.05,0,0,0.05,116.65000000000003,0)" xlink:href="#w"/><use transform="matrix(0.05,0,0,0.05,125.65000000000003,0)" xlink:href="#B"/></g><path d="M185-189c-5-48-123-54-124 2 14 75 158 14 163 119 3 78-121 87-175 55-17-10-28-26-33-46l33-7c5 56 141 63 141-1 0-78-155-14-162-118-5-82 145-84 179-34 5 7 8 16 11 25" id="H"/><path d="M115-194c55 1 70 41 70 98S169 2 115 4C84 4 66-9 55-30l1 105H24l-1-265h31l2 30c10-21 28-34 59-34zm-8 174c40 0 45-34 45-75s-6-73-45-74c-42 0-51 32-51 76 0 43 10 73 51 73" id="I"/><g id="h"><use transform="matrix(0.05,0,0,0.05,0,0)" xlink:href="#H"/><use transform="matrix(0.05,0,0,0.05,12,0)" xlink:href="#I"/><use transform="matrix(0.05,0,0,0.05,22,0)" xlink:href="#E"/><use transform="matrix(0.05,0,0,0.05,25.950000000000003,0)" xlink:href="#A"/><use transform="matrix(0.05,0,0,0.05,29.899999999999995,0)" xlink:href="#t"/></g><g id="i"><use transform="matrix(0.05,0,0,0.05,0,0)" xlink:href="#x"/><use transform="matrix(0.05,0,0,0.05,12.950000000000001,0)" xlink:href="#y"/><use transform="matrix(0.05,0,0,0.05,22.950000000000003,0)" xlink:href="#z"/><use transform="matrix(0.05,0,0,0.05,37.900000000000006,0)" xlink:href="#A"/><use transform="matrix(0.05,0,0,0.05,41.85000000000001,0)" xlink:href="#w"/><use transform="matrix(0.05,0,0,0.05,50.85000000000001,0)" xlink:href="#B"/></g><path d="M85-194c31 0 48 13 60 33l-1-100h32l1 261h-30c-2-10 0-23-3-31C134-8 116 4 85 4 32 4 16-35 15-94c0-66 23-100 70-100zm9 24c-40 0-46 34-46 75 0 40 6 74 45 74 42 0 51-32 51-76 0-42-9-74-50-73" id="J"/><g id="j"><use transform="matrix(0.05,0,0,0.05,0,0)" xlink:href="#v"/><use transform="matrix(0.05,0,0,0.05,10,0)" xlink:href="#F"/><use transform="matrix(0.05,0,0,0.05,20,0)" xlink:href="#J"/></g><g id="k"><use transform="matrix(0.05,0,0,0.05,0,0)" xlink:href="#r"/><use transform="matrix(0.05,0,0,0.05,12,0)" xlink:href="#s"/><use transform="matrix(0.05,0,0,0.05,21,0)" xlink:href="#t"/><use transform="matrix(0.05,0,0,0.05,26,0)" xlink:href="#u"/><use transform="matrix(0.05,0,0,0.05,31.950000000000003,0)" xlink:href="#v"/><use transform="matrix(0.05,0,0,0.05,41.95,0)" xlink:href="#w"/><use transform="matrix(0.05,0,0,0.05,50.95,0)" xlink:href="#t"/></g><g id="l"><use transform="matrix(0.05,0,0,0.05,0,0)" xlink:href="#x"/><use transform="matrix(0.05,0,0,0.05,12.950000000000001,0)" xlink:href="#C"/><use transform="matrix(0.05,0,0,0.05,22.950000000000003,0)" xlink:href="#v"/><use transform="matrix(0.05,0,0,0.05,32.95,0)" xlink:href="#u"/><use transform="matrix(0.05,0,0,0.05,38.900000000000006,0)" xlink:href="#v"/><use transform="matrix(0.05,0,0,0.05,48.900000000000006,0)" xlink:href="#w"/><use transform="matrix(0.05,0,0,0.05,57.900000000000006,0)" xlink:href="#t"/><use transform="matrix(0.05,0,0,0.05,62.900000000000006,0)" xlink:href="#D"/><use transform="matrix(0.05,0,0,0.05,72.9,0)" xlink:href="#u"/><use transform="matrix(0.05,0,0,0.05,78.85000000000001,0)" xlink:href="#B"/><use transform="matrix(0.05,0,0,0.05,87.85000000000001,0)" xlink:href="#G"/><use transform="matrix(0.05,0,0,0.05,93.80000000000001,0)" xlink:href="#x"/><use transform="matrix(0.05,0,0,0.05,106.75,0)" xlink:href="#y"/><use transform="matrix(0.05,0,0,0.05,116.75,0)" xlink:href="#z"/><use transform="matrix(0.05,0,0,0.05,131.70000000000002,0)" xlink:href="#A"/><use transform="matrix(0.05,0,0,0.05,135.65,0)" xlink:href="#w"/><use transform="matrix(0.05,0,0,0.05,144.65,0)" xlink:href="#B"/></g><path d="M108 0H70L1-190h34L89-25l56-165h34" id="K"/><g id="m"><use transform="matrix(0.05,0,0,0.05,0,0)" xlink:href="#H"/><use transform="matrix(0.05,0,0,0.05,12,0)" xlink:href="#v"/><use transform="matrix(0.05,0,0,0.05,22,0)" xlink:href="#K"/><use transform="matrix(0.05,0,0,0.05,31,0)" xlink:href="#D"/></g><g id="n"><use transform="matrix(0.05,0,0,0.05,0,0)" xlink:href="#H"/><use transform="matrix(0.05,0,0,0.05,12,0)" xlink:href="#v"/><use transform="matrix(0.05,0,0,0.05,22,0)" xlink:href="#K"/><use transform="matrix(0.05,0,0,0.05,31,0)" xlink:href="#D"/></g><path d="M127-220V0H93v-220H8v-28h204v28h-85" id="L"/><path d="M177-190C167-65 218 103 67 71c-23-6-38-20-44-43l32-5c15 47 100 32 89-28v-30C133-14 115 1 83 1 29 1 15-40 15-95c0-56 16-97 71-98 29-1 48 16 59 35 1-10 0-23 2-32h30zM94-22c36 0 50-32 50-73 0-42-14-75-50-75-39 0-46 34-46 75s6 73 46 73" id="M"/><g id="o"><use transform="matrix(0.05,0,0,0.05,0,0)" xlink:href="#L"/><use transform="matrix(0.05,0,0,0.05,8.950000000000001,0)" xlink:href="#v"/><use transform="matrix(0.05,0,0,0.05,18.950000000000003,0)" xlink:href="#u"/><use transform="matrix(0.05,0,0,0.05,24.900000000000002,0)" xlink:href="#M"/><use transform="matrix(0.05,0,0,0.05,34.900000000000006,0)" xlink:href="#D"/><use transform="matrix(0.05,0,0,0.05,44.900000000000006,0)" xlink:href="#t"/></g><path d="M84 4C-5 8 30-112 23-190h32v120c0 31 7 50 39 49 72-2 45-101 50-169h31l1 190h-30c-1-10 1-25-2-33-11 22-28 36-60 37" id="N"/><g id="p"><use transform="matrix(0.05,0,0,0.05,0,0)" xlink:href="#x"/><use transform="matrix(0.05,0,0,0.05,12.950000000000001,0)" xlink:href="#v"/><use transform="matrix(0.05,0,0,0.05,22.950000000000003,0)" xlink:href="#E"/><use transform="matrix(0.05,0,0,0.05,26.900000000000002,0)" xlink:href="#w"/><use transform="matrix(0.05,0,0,0.05,35.900000000000006,0)" xlink:href="#N"/><use transform="matrix(0.05,0,0,0.05,45.900000000000006,0)" xlink:href="#E"/><use transform="matrix(0.05,0,0,0.05,49.85000000000001,0)" xlink:href="#v"/><use transform="matrix(0.05,0,0,0.05,59.85,0)" xlink:href="#t"/><use transform="matrix(0.05,0,0,0.05,64.85000000000001,0)" xlink:href="#D"/></g><path d="M30-248c87 1 191-15 191 75 0 78-77 80-158 76V0H30v-248zm33 125c57 0 124 11 124-50 0-59-68-47-124-48v98" id="O"/><g id="q"><use transform="matrix(0.05,0,0,0.05,0,0)" xlink:href="#O"/><use transform="matrix(0.05,0,0,0.05,12,0)" xlink:href="#v"/><use transform="matrix(0.05,0,0,0.05,22,0)" xlink:href="#u"/><use transform="matrix(0.05,0,0,0.05,27.950000000000003,0)" xlink:href="#t"/><use transform="matrix(0.05,0,0,0.05,32.95,0)" xlink:href="#F"/><use transform="matrix(0.05,0,0,0.05,42.95,0)" xlink:href="#D"/><use transform="matrix(0.05,0,0,0.05,52.95,0)" xlink:href="#u"/><use transform="matrix(0.05,0,0,0.05,58.900000000000006,0)" xlink:href="#B"/></g></defs></g></svg>